<svg width="281" height="52" viewBox="0 0 281 52" fill="#282c34" xmlns="http://www.w3.org/2000/svg">
<path fill-rule="evenodd" clip-rule="evenodd" d="M60.5405 2.58685C55.0211 -0.541186 45.4473 3.99153 47.2867 12.0046C48.6742 18.049 57.0308 21.4224 57.0308 21.4224C57.0308 21.4224 52.1023 44.9659 43.777 41.0428C41.4367 39.94 40.191 38.3075 38.7958 36.6516C38.31 36.075 37.7862 35.4534 37.1514 34.7643C37.3911 33.5966 38.0932 31.689 38.9391 29.3909C41.7126 21.856 46.0312 10.1234 40.6585 6.51093C39.1415 5.02377 36.2978 4.55555 33.6417 5.33504C24.6297 7.99543 27.336 26.4559 30.1347 34.3732C29.6124 34.8736 29.1286 35.3711 28.6586 35.8545C26.0729 38.5135 23.906 40.7418 18.049 40.6517C16.9131 40.4701 16.4764 40.0565 16.1013 38.6883C15.3094 33.8751 16.7266 28.7611 18.1235 23.7203C19.8875 17.3544 21.6192 11.1052 18.8287 5.72611C15.6282 -1.92251 5.20754 2.46979 1.67672 6.52423C-1.8541 10.5787 1.28822 11.2331 1.28822 11.2331C3.63577 11.0945 4.6405 10.47 5.64813 9.84359C5.84084 9.7238 6.06745 9.54969 6.31629 9.3585C7.26382 8.63052 8.8201 8.33388 9.76744 9.16657C10.2815 9.61842 10.2738 10.0572 10.2738 10.0572C12.3038 15.8301 10.3858 20.8473 8.43532 25.9494C6.66815 30.5721 4.87433 35.2644 5.96603 40.6517C9.19557 56.5954 26.4321 46.4354 32.4736 41.4498C46.7581 60.7722 63.5876 39.2044 63.659 20.2598C66.5846 19.0307 68.3606 17.8389 68.7253 13.9813V13.5876C68.7253 13.5876 65.0845 15.7411 64.4386 13.968C63.7928 12.1948 63.6477 10.4901 63.515 8.92925C63.2891 6.2748 63.0987 4.03673 60.5405 2.58685ZM36.7603 11.6268C35.9648 7.23189 35.201 10.4483 35.201 10.4483C33.8234 13.675 34.2291 17.9549 34.6269 22.15C34.6916 22.8318 34.756 23.5114 34.8125 24.1839C36.7026 19.5584 37.483 16.8967 36.7603 11.6268ZM56.2644 6.90466C55.6163 7.11799 55.4715 8.47429 55.4715 8.47429C55.7362 10.7881 58.2148 13.5743 58.2148 13.5743L57.8236 8.47429C57.8236 8.47429 57.082 6.63552 56.2644 6.90466Z" fill="white"/>
<path d="M174.662 30.2581C174.713 30.6244 174.964 30.9363 175.316 31.0505C188.281 35.2585 202.907 22.2185 195.016 8.87866C189.524 -0.437779 162.608 -1.93681 159.743 10.839C159.608 11.4413 160.115 11.9721 160.728 11.9029C163.884 11.5465 166.503 10.5828 168.938 9.68669C174.194 7.75299 182.372 5.90439 185.673 11.6136C189.223 17.7539 183.729 24.5145 176.75 27.4327L175.195 27.8708C174.713 28.0066 174.406 28.4778 174.478 28.9733C174.489 29.0506 174.5 29.1278 174.511 29.2051C174.561 29.5561 174.612 29.9071 174.662 30.2581Z" fill="white"/>
<path d="M173.979 10.435C173.706 9.8889 172.419 10.435 172.419 10.435C168.407 13.7577 155.102 50.3886 168.595 48.9942C169.008 48.9516 169.35 48.6165 169.424 48.208C171.991 33.9032 172.98 25.5019 173.979 10.435Z" fill="white"/>
<path d="M212.426 29.2051C212.572 30.2191 213.258 31.0924 214.248 31.3446C226.943 34.5789 240.617 21.8709 232.931 8.87867C227.826 0.217766 204.205 -1.68714 198.605 8.35195C197.623 10.1116 199.303 11.9005 201.263 11.4558C203.303 10.993 205.125 10.3228 206.854 9.68669C212.109 7.75299 220.288 5.90439 223.588 11.6136C227.138 17.7539 221.644 24.5145 214.665 27.4327L213.333 27.8082C212.724 27.9798 212.336 28.5771 212.426 29.2051Z" fill="white"/>
<path d="M211.894 10.435C211.621 9.88891 210.334 10.435 210.334 10.435C206.488 13.6202 194.102 47.4148 204.971 48.9771C206.308 49.1694 207.377 48.0055 207.613 46.6706C209.978 33.2835 210.932 24.9541 211.894 10.435Z" fill="white"/>
<path d="M278.841 15.5376C274.29 -1.66978 248.099 -2.18589 238.688 10.8287C238.441 11.4668 238.547 11.7191 239.079 12.0179C241.735 11.8982 244.862 11.026 248.093 10.1248C255.274 8.12195 262.969 5.97568 267.146 11.6268C274.385 21.4197 266.848 38.3717 258.954 41.0561C258.954 41.0561 248.57 44.5236 248.826 40.6517C248.826 40.6517 252.315 11.9564 250.698 12.0179C249.08 12.0794 240.522 30.1565 240.25 38.284L233.234 37.1187C232.472 37.0283 232.434 37.2355 232.845 37.9168C233.871 40.0406 239.509 45.444 240.93 46.7333C239.302 49.9999 245.814 51.6333 248.826 49.9999C269.919 56.2651 285.511 40.7608 278.841 15.5376Z" fill="white"/>
<path fill-rule="evenodd" clip-rule="evenodd" d="M155.656 33.9794L147.463 41.4285C146.721 42.1141 146.369 42.165 145.904 41.4285C145.011 37.5702 146.875 31.8832 148.807 25.9855C152.787 13.8397 155.612 -0.413776 138.119 0.974382C137.857 0.995144 137.589 1.07299 137.357 1.1967C127.75 6.33094 123.19 12.3945 119 22.984C114.084 23.7077 109.969 25.4476 107.696 28.8715C107.461 29.4844 107.412 29.828 107.696 30.4411L116.272 29.6563V29.6563C116.487 29.6563 116.65 29.8507 116.61 30.0618C116.417 31.0949 116.198 32.1429 115.975 33.2046C114.932 38.1754 113.827 43.4446 115.125 48.883C115.386 49.3321 115.653 49.4985 116.296 49.6811C119.938 49.9471 124.489 46.5418 124.489 46.5418C124.489 46.5418 125.634 33.9403 126.048 29.2759C126.425 25.0366 136.72 28.5031 138.593 29.1702C138.77 29.2332 138.885 29.4003 138.885 29.588V29.588C138.885 29.642 138.875 29.6946 138.856 29.7452C137.217 34.136 135.195 40.5751 136.934 45.757C137.621 47.1653 138.245 47.7439 139.677 48.4999C148.89 52.6261 157.477 42.3065 157.218 34.3732C156.891 33.5592 156.541 33.4942 155.656 33.9794ZM108.878 33.9794C108.878 33.9794 104.801 42.1232 101.081 41.4285C97.3619 40.7339 95.9195 33.4774 95.0785 29.2468C94.9951 28.8272 94.9176 28.4374 94.8444 28.0867C102.58 25.9584 109.581 11.2677 100.69 4.94129C91.7999 -1.38512 73.3423 1.0385 69.5049 10.0439L69.3734 10.7035C69.2433 11.3554 69.774 11.9469 70.4286 11.8319C72.4433 11.478 74.6151 10.7279 76.8312 9.96259C83.0628 7.81047 89.644 5.53762 94.0621 11.6136C95.3835 16.6044 95.764 20.9554 91.7232 22.992C89.4111 24.1574 85.0976 22.992 85.0976 22.992C83.7441 23.611 83.4287 24.1408 83.5384 25.3465C84.281 26.9901 85.0826 27.3994 85.9308 27.8324C86.5406 28.1436 87.1744 28.4672 87.8277 29.2706C89.7801 31.6703 89.7757 35.0486 89.7714 38.345C89.7661 42.3573 90.3225 45.351 93.2851 48.1061C99.6581 54.0328 111.743 40.9842 110.828 34.3732C110.374 33.581 109.928 33.5326 108.878 33.9794ZM83.5384 11.2198C82.6257 10.6743 82.1109 10.6681 81.1995 11.2198C74.2303 17.7617 67.1581 35.4613 70.2846 48.8909C72.7953 50.2025 76.0327 49.4922 77.6845 47.715C79.1566 46.7972 83.8423 14.4096 83.5384 11.2198ZM136.945 10.0439C132.132 13.13 129.376 16.0883 127.589 22.2072L141.234 21.8161C143.129 18.4773 143.036 13.4466 141.234 10.435C140.136 8.87267 139.199 8.77548 136.945 10.0439Z" fill="white"/>
</svg>
